<svg width="225" height="188" viewBox="0 0 225 188" fill="none" xmlns="http://www.w3.org/2000/svg">
<g clip-path="url(#clip0_132_644)">
<path d="M215.876 63.8719L214.868 63.5619L224.122 38.28C225.543 34.3994 225.221 30.1612 223.227 26.4979C221.233 22.8346 217.732 20.0462 213.492 18.7461L213.491 18.7459L154.971 0.803848C150.731 -0.496228 146.101 -0.201487 142.099 1.62323C138.096 3.44795 135.05 6.65318 133.629 10.5338L133.629 10.5345L82.8682 149.233C82.1649 151.154 81.8819 153.184 82.0355 155.205C82.1891 157.227 82.7762 159.201 83.7633 161.015C84.7505 162.829 86.1182 164.447 87.7886 165.777C89.4589 167.107 91.3991 168.123 93.4984 168.767L93.4992 168.767L152.018 186.71C156.258 188.01 160.888 187.715 164.89 185.89C168.892 184.065 171.939 180.86 173.359 176.979L208.281 81.5592L209.29 81.8683L215.876 63.8719Z" fill="#3F3D56"/>
<path d="M212.741 22.7511L205.102 20.4089C205.165 21.3049 204.986 22.2012 204.581 23.019C204.176 23.8368 203.558 24.5509 202.781 25.0984C202.003 25.646 201.091 26.0101 200.123 26.1588C199.156 26.3074 198.164 26.2361 197.233 25.951L163.709 15.6717C162.779 15.3863 161.94 14.896 161.266 14.2439C160.592 13.5918 160.103 12.798 159.843 11.9324C159.583 11.0668 159.559 10.1559 159.774 9.27998C159.99 8.40408 160.437 7.59002 161.076 6.90951L153.942 4.72188C150.776 3.75107 147.318 3.97129 144.329 5.33407C141.34 6.69685 139.065 9.09057 138.004 11.9887L87.3158 150.483C86.2552 153.381 86.4958 156.546 87.9847 159.282C89.4735 162.018 92.0888 164.1 95.255 165.071L154.056 183.1C157.222 184.071 160.68 183.851 163.669 182.488C166.658 181.125 168.933 178.732 169.994 175.834L220.681 37.3389C221.741 34.4408 221.501 31.2757 220.012 28.5399C218.523 25.8042 215.907 23.7218 212.741 22.7511Z" fill="white"/>
<path d="M198.036 69.2146L135.284 49.9738C134.976 49.879 134.722 49.6762 134.577 49.41C134.432 49.1438 134.409 48.8359 134.511 48.5538L139.726 34.3055C139.83 34.0236 140.051 33.7908 140.342 33.6582C140.633 33.5256 140.969 33.504 141.277 33.5982L204.03 52.8392C204.338 52.934 204.592 53.1368 204.737 53.403C204.882 53.6692 204.905 53.9771 204.802 54.2592L199.588 68.507C199.484 68.7889 199.263 69.0217 198.972 69.1543C198.681 69.2869 198.345 69.3085 198.036 69.2143L198.036 69.2146ZM141.122 34.0241C140.937 33.9677 140.735 33.9806 140.56 34.0602C140.386 34.1398 140.253 34.2795 140.191 34.4486L134.976 48.6964C134.915 48.8657 134.929 49.0504 135.016 49.2102C135.103 49.3699 135.255 49.4915 135.44 49.5483L198.192 68.7894C198.377 68.8458 198.579 68.8329 198.753 68.7533C198.928 68.6737 199.061 68.534 199.123 68.3649L204.338 54.1178C204.4 53.9485 204.386 53.7638 204.299 53.6041C204.212 53.4444 204.059 53.3228 203.874 53.2659L141.122 34.0241Z" fill="#3F3D56"/>
<path d="M177.404 125.588L114.652 106.348C114.344 106.253 114.09 106.05 113.945 105.784C113.8 105.518 113.777 105.21 113.88 104.928L123.532 78.5546C123.635 78.2727 123.857 78.0399 124.148 77.9073C124.439 77.7747 124.775 77.7531 125.083 77.8473L187.835 97.0876C188.143 97.1824 188.398 97.3851 188.543 97.6513C188.687 97.9175 188.711 98.2255 188.608 98.5076L178.955 124.881C178.852 125.163 178.63 125.396 178.34 125.528C178.049 125.661 177.713 125.682 177.404 125.588ZM124.927 78.2725C124.742 78.216 124.541 78.229 124.366 78.3086C124.192 78.3881 124.059 78.5278 123.997 78.697L114.344 105.07C114.283 105.239 114.297 105.424 114.384 105.584C114.471 105.743 114.623 105.865 114.808 105.922L177.56 125.163C177.745 125.219 177.947 125.206 178.122 125.127C178.296 125.047 178.429 124.908 178.491 124.738L188.144 98.3649C188.206 98.1957 188.191 98.0109 188.104 97.8512C188.018 97.6915 187.865 97.5699 187.68 97.5131L124.927 78.2725Z" fill="#3F3D56"/>
<path d="M189.473 91.1962L161.585 82.6436C161.277 82.5488 161.022 82.3461 160.877 82.0799C160.733 81.8137 160.709 81.5057 160.812 81.2236L166.026 66.9758C166.13 66.6939 166.351 66.4612 166.642 66.3286C166.933 66.196 167.27 66.1744 167.578 66.2685L195.467 74.8209C195.775 74.9157 196.03 75.1184 196.175 75.3846C196.319 75.6508 196.343 75.9588 196.24 76.2409L191.026 90.4887C190.922 90.7708 190.701 91.0039 190.41 91.1365C190.119 91.2692 189.782 91.2907 189.473 91.1962ZM167.422 66.6949C167.237 66.6385 167.035 66.6514 166.861 66.731C166.686 66.8106 166.553 66.9503 166.491 67.1194L161.277 81.3672C161.215 81.5365 161.229 81.7212 161.316 81.881C161.403 82.0407 161.556 82.1623 161.741 82.2191L189.63 90.7705C189.815 90.827 190.017 90.814 190.192 90.7345C190.366 90.6549 190.499 90.5152 190.561 90.346L195.776 76.0982C195.837 75.929 195.823 75.7442 195.736 75.5845C195.649 75.4248 195.497 75.3032 195.312 75.2464L167.422 66.6949Z" fill="#E6E6E6"/>
<path d="M129.93 149.361L102.041 140.81C101.733 140.715 101.478 140.512 101.333 140.246C101.189 139.98 101.165 139.672 101.268 139.39L110.998 112.804C111.102 112.522 111.323 112.289 111.614 112.157C111.905 112.024 112.241 112.002 112.549 112.097L140.439 120.648C140.747 120.743 141.001 120.945 141.146 121.212C141.291 121.478 141.314 121.786 141.211 122.068L131.481 148.654C131.377 148.936 131.156 149.169 130.865 149.301C130.574 149.434 130.238 149.456 129.93 149.361ZM112.393 112.522C112.208 112.465 112.006 112.478 111.831 112.558C111.657 112.637 111.524 112.777 111.462 112.946L101.732 139.532C101.67 139.702 101.684 139.886 101.771 140.046C101.858 140.206 102.011 140.327 102.195 140.384L130.085 148.936C130.27 148.992 130.472 148.979 130.647 148.9C130.821 148.82 130.954 148.681 131.016 148.511L140.746 121.925C140.808 121.756 140.794 121.571 140.707 121.412C140.62 121.252 140.467 121.13 140.282 121.073L112.393 112.522Z" fill="#E6E6E6"/>
<path d="M164.327 159.908L136.437 151.357C136.129 151.262 135.875 151.059 135.73 150.793C135.585 150.527 135.561 150.219 135.664 149.937L145.394 123.351C145.498 123.069 145.719 122.836 146.01 122.703C146.301 122.571 146.637 122.549 146.946 122.643L174.836 131.195C175.144 131.29 175.398 131.492 175.543 131.759C175.688 132.025 175.711 132.333 175.608 132.615L165.878 159.201C165.775 159.483 165.553 159.716 165.262 159.848C164.972 159.981 164.635 160.003 164.327 159.908ZM146.79 123.069C146.605 123.012 146.403 123.025 146.229 123.105C146.054 123.184 145.922 123.324 145.859 123.493L136.129 150.079C136.067 150.249 136.082 150.433 136.168 150.593C136.255 150.753 136.408 150.874 136.593 150.931L164.483 159.483C164.668 159.54 164.87 159.527 165.044 159.447C165.218 159.368 165.351 159.228 165.413 159.059L175.144 132.473C175.205 132.303 175.191 132.118 175.104 131.959C175.017 131.799 174.865 131.677 174.68 131.621L146.79 123.069Z" fill="#E6E6E6"/>
<path d="M130.95 94.606C133.707 94.606 135.942 92.5601 135.942 90.0365C135.942 87.5128 133.707 85.467 130.95 85.467C128.192 85.467 125.957 87.5128 125.957 90.0365C125.957 92.5601 128.192 94.606 130.95 94.606Z" fill="#6C63FF"/>
<path d="M142.938 90.5001C142.729 90.4359 142.501 90.4505 142.303 90.5406C142.105 90.6306 141.955 90.7888 141.885 90.9803C141.815 91.1719 141.831 91.381 141.929 91.5618C142.028 91.7426 142.2 91.8802 142.41 91.9444L179.603 103.348C179.707 103.38 179.816 103.393 179.925 103.386C180.034 103.379 180.14 103.353 180.238 103.308C180.336 103.263 180.423 103.202 180.495 103.126C180.567 103.051 180.622 102.963 180.656 102.868C180.691 102.773 180.705 102.673 180.697 102.573C180.69 102.474 180.661 102.376 180.612 102.287C180.563 102.197 180.496 102.117 180.413 102.052C180.331 101.986 180.235 101.936 180.132 101.904L142.938 90.5001Z" fill="#E6E6E6"/>
<path d="M141.353 94.8328C141.25 94.801 141.14 94.7882 141.031 94.7952C140.922 94.8021 140.816 94.8286 140.718 94.8732C140.62 94.9178 140.533 94.9796 140.461 95.0551C140.39 95.1305 140.335 95.2182 140.3 95.313C140.265 95.4078 140.252 95.508 140.259 95.6078C140.267 95.7076 140.296 95.805 140.344 95.8945C140.393 95.984 140.461 96.0639 140.543 96.1295C140.625 96.1952 140.721 96.2453 140.825 96.2771L156.829 101.184C156.933 101.216 157.042 101.229 157.151 101.222C157.26 101.215 157.367 101.189 157.465 101.144C157.562 101.099 157.65 101.038 157.721 100.962C157.793 100.887 157.848 100.799 157.882 100.704C157.917 100.609 157.931 100.509 157.924 100.409C157.916 100.31 157.887 100.212 157.838 100.123C157.79 100.033 157.722 99.9533 157.64 99.8877C157.557 99.822 157.461 99.7719 157.358 99.7401L141.353 94.8328Z" fill="#E6E6E6"/>
<path d="M124.255 97.2942C123.655 97.1102 123.048 97.2845 122.902 97.6837C122.756 98.0828 123.126 98.5555 123.727 98.7395L175.042 114.474C175.642 114.658 176.249 114.483 176.394 114.084C176.54 113.685 176.17 113.212 175.57 113.028L124.255 97.2942Z" fill="#E6E6E6"/>
<path d="M122.669 101.627C122.069 101.443 121.462 101.617 121.317 102.017C121.171 102.416 121.541 102.888 122.141 103.072L173.456 118.807C174.056 118.991 174.663 118.816 174.809 118.417C174.954 118.018 174.585 117.545 173.984 117.361L122.669 101.627Z" fill="#E6E6E6"/>
<path d="M148.232 48.7987C150.989 48.7987 153.224 46.7528 153.224 44.2292C153.224 41.7055 150.989 39.6597 148.232 39.6597C145.474 39.6597 143.239 41.7055 143.239 44.2292C143.239 46.7528 145.474 48.7987 148.232 48.7987Z" fill="#6C63FF"/>
<path d="M160.221 44.6926C160.117 44.6608 160.008 44.648 159.899 44.655C159.79 44.6619 159.683 44.6884 159.586 44.733C159.488 44.7776 159.401 44.8394 159.329 44.9149C159.257 44.9903 159.202 45.078 159.168 45.1728C159.133 45.2676 159.119 45.3678 159.127 45.4676C159.134 45.5673 159.163 45.6648 159.212 45.7543C159.261 45.8438 159.328 45.9237 159.411 45.9893C159.493 46.055 159.589 46.1051 159.692 46.1369L196.886 57.5409C196.989 57.5727 197.099 57.5854 197.208 57.5785C197.317 57.5716 197.423 57.545 197.521 57.5004C197.619 57.4559 197.706 57.3941 197.778 57.3186C197.849 57.2431 197.904 57.1555 197.939 57.0607C197.974 56.9658 197.988 56.8657 197.98 56.7659C197.972 56.6661 197.943 56.5687 197.895 56.4792C197.846 56.3896 197.778 56.3098 197.696 56.2441C197.614 56.1785 197.518 56.1284 197.414 56.0966L160.221 44.6926Z" fill="#E6E6E6"/>
<path d="M158.635 49.0255C158.532 48.9937 158.422 48.9809 158.313 48.9879C158.204 48.9948 158.098 49.0213 158 49.0659C157.902 49.1105 157.815 49.1723 157.743 49.2478C157.671 49.3232 157.617 49.4109 157.582 49.5057C157.547 49.6006 157.533 49.7007 157.541 49.8005C157.548 49.9003 157.577 49.9977 157.626 50.0872C157.675 50.1767 157.742 50.2566 157.825 50.3222C157.907 50.3879 158.003 50.438 158.107 50.4698L174.111 55.3771C174.215 55.4089 174.324 55.4217 174.433 55.4147C174.542 55.4078 174.648 55.3813 174.746 55.3367C174.844 55.2921 174.931 55.2303 175.003 55.1548C175.075 55.0794 175.13 54.9917 175.164 54.8969C175.199 54.8021 175.213 54.7019 175.205 54.6021C175.198 54.5024 175.169 54.4049 175.12 54.3154C175.071 54.2259 175.004 54.146 174.921 54.0804C174.839 54.0147 174.743 53.9646 174.64 53.9328L158.635 49.0255Z" fill="#E6E6E6"/>
<path d="M155.052 80.6444L128.888 72.6223L138.618 64.7488C138.792 64.6076 139.004 64.5109 139.232 64.4685C139.461 64.426 139.697 64.4393 139.918 64.507C140.138 64.5747 140.336 64.6943 140.49 64.854C140.644 65.0136 140.75 65.2076 140.796 65.4164L141.9 70.3928L148.967 64.6731C149.185 64.4964 149.451 64.3755 149.736 64.3224C150.022 64.2693 150.318 64.286 150.594 64.3707C150.87 64.4554 151.117 64.6053 151.31 64.8051C151.503 65.0049 151.636 65.2477 151.694 65.5091L155.052 80.6444ZM129.849 72.4437L154.402 79.9721L151.213 65.5994C151.172 65.4153 151.079 65.2442 150.943 65.1035C150.807 64.9627 150.633 64.8572 150.438 64.7975C150.243 64.7378 150.035 64.726 149.834 64.7634C149.633 64.8008 149.446 64.886 149.292 65.0104L141.589 71.244L140.315 65.506C140.286 65.3744 140.22 65.2521 140.123 65.1515C140.025 65.0509 139.901 64.9755 139.762 64.9328C139.623 64.8902 139.474 64.8818 139.33 64.9085C139.186 64.9353 139.053 64.9962 138.943 65.0851L129.849 72.4437Z" fill="#E6E6E6"/>
<path d="M155.077 80.6492L127.187 72.0978C126.879 72.003 126.625 71.8003 126.48 71.5341C126.335 71.2679 126.312 70.96 126.415 70.6779L131.629 56.43C131.733 56.1482 131.954 55.9154 132.245 55.7828C132.536 55.6502 132.872 55.6286 133.18 55.7227L161.07 64.2744C161.378 64.3692 161.633 64.5719 161.777 64.8381C161.922 65.1043 161.946 65.4123 161.843 65.6944L156.628 79.9419C156.525 80.2238 156.303 80.4566 156.013 80.5892C155.722 80.7218 155.385 80.7434 155.077 80.6492ZM133.025 56.1479C132.84 56.0915 132.638 56.1044 132.464 56.184C132.289 56.2636 132.156 56.4033 132.094 56.5724L126.88 70.8202C126.818 70.9895 126.832 71.1743 126.919 71.334C127.006 71.4937 127.159 71.6153 127.344 71.6721L155.233 80.2238C155.418 80.2803 155.62 80.2673 155.795 80.1877C155.969 80.1081 156.102 79.9684 156.164 79.7993L161.379 65.5515C161.44 65.3822 161.426 65.1975 161.339 65.0378C161.252 64.8781 161.1 64.7564 160.915 64.6996L133.025 56.1479Z" fill="#E6E6E6"/>
<path d="M116.485 119.401C116.381 119.369 116.271 119.356 116.162 119.363C116.053 119.37 115.947 119.396 115.849 119.441C115.751 119.485 115.663 119.547 115.592 119.623C115.52 119.698 115.465 119.786 115.43 119.881C115.396 119.976 115.382 120.076 115.389 120.176C115.397 120.276 115.426 120.373 115.475 120.463C115.523 120.552 115.591 120.632 115.674 120.698C115.756 120.764 115.852 120.814 115.956 120.845L131.96 125.753C132.169 125.816 132.398 125.802 132.595 125.712C132.792 125.622 132.943 125.463 133.013 125.272C133.083 125.081 133.067 124.872 132.969 124.691C132.87 124.51 132.698 124.373 132.489 124.308L116.485 119.401Z" fill="#E6E6E6"/>
<path d="M114.927 123.656C114.824 123.624 114.714 123.611 114.605 123.618C114.496 123.624 114.389 123.651 114.292 123.695C114.194 123.74 114.106 123.802 114.034 123.877C113.963 123.953 113.908 124.041 113.873 124.135C113.838 124.23 113.824 124.331 113.832 124.43C113.84 124.53 113.869 124.628 113.917 124.717C113.966 124.807 114.034 124.887 114.117 124.952C114.199 125.018 114.295 125.068 114.399 125.1L130.403 130.008C130.612 130.072 130.84 130.057 131.037 129.967C131.235 129.876 131.384 129.718 131.454 129.527C131.524 129.336 131.509 129.127 131.411 128.947C131.313 128.766 131.141 128.628 130.932 128.564L114.927 123.656Z" fill="#E6E6E6"/>
<path d="M160.391 152.604C160.6 152.668 160.828 152.653 161.025 152.563C161.223 152.473 161.373 152.314 161.443 152.123C161.513 151.932 161.497 151.723 161.399 151.542C161.301 151.361 161.128 151.224 160.919 151.159L144.915 146.252C144.706 146.188 144.477 146.203 144.28 146.293C144.083 146.383 143.933 146.541 143.863 146.733C143.793 146.924 143.808 147.133 143.907 147.314C144.005 147.494 144.177 147.632 144.386 147.696L160.391 152.604Z" fill="#E6E6E6"/>
<path d="M161.948 148.349C162.051 148.381 162.161 148.394 162.27 148.387C162.379 148.38 162.486 148.354 162.584 148.309C162.682 148.264 162.769 148.203 162.841 148.127C162.913 148.052 162.967 147.964 163.002 147.869C163.037 147.774 163.051 147.674 163.043 147.574C163.036 147.474 163.006 147.377 162.958 147.287C162.909 147.197 162.841 147.118 162.759 147.052C162.676 146.986 162.58 146.936 162.476 146.905L146.472 141.997C146.368 141.965 146.259 141.952 146.15 141.959C146.041 141.966 145.934 141.993 145.836 142.037C145.738 142.082 145.651 142.144 145.579 142.219C145.507 142.295 145.452 142.382 145.418 142.477C145.383 142.572 145.369 142.672 145.377 142.772C145.384 142.872 145.413 142.97 145.462 143.059C145.511 143.149 145.579 143.229 145.661 143.294C145.744 143.36 145.84 143.41 145.943 143.442L161.948 148.349Z" fill="#E6E6E6"/>
<path d="M186.944 80.1985C187.047 80.2304 187.157 80.2433 187.266 80.2365C187.375 80.2296 187.482 80.2032 187.58 80.1586C187.678 80.114 187.765 80.0522 187.837 79.9767C187.909 79.9012 187.963 79.8135 187.998 79.7186C188.033 79.6237 188.047 79.5234 188.039 79.4236C188.032 79.3237 188.003 79.2262 187.954 79.1366C187.905 79.0471 187.837 78.9672 187.755 78.9016C187.672 78.8359 187.576 78.7859 187.472 78.7542L171.468 73.8469C171.364 73.8149 171.255 73.802 171.146 73.8089C171.037 73.8157 170.93 73.8422 170.832 73.8868C170.734 73.9313 170.647 73.9931 170.575 74.0686C170.503 74.1441 170.449 74.2319 170.414 74.3268C170.379 74.4217 170.365 74.5219 170.373 74.6218C170.38 74.7216 170.409 74.8191 170.458 74.9087C170.507 74.9983 170.575 75.0782 170.657 75.1438C170.74 75.2094 170.836 75.2595 170.939 75.2912L186.944 80.1985Z" fill="#E6E6E6"/>
<path d="M185.614 83.606C185.718 83.6379 185.827 83.6508 185.936 83.644C186.046 83.6371 186.152 83.6107 186.25 83.5661C186.348 83.5215 186.435 83.4597 186.507 83.3842C186.579 83.3087 186.634 83.221 186.669 83.1261C186.703 83.0312 186.717 82.9309 186.71 82.8311C186.702 82.7312 186.673 82.6337 186.624 82.5441C186.575 82.4546 186.508 82.3747 186.425 82.3091C186.342 82.2434 186.247 82.1934 186.143 82.1617L170.138 77.2544C170.035 77.2225 169.925 77.2096 169.816 77.2164C169.707 77.2232 169.601 77.2497 169.503 77.2943C169.405 77.3389 169.317 77.4007 169.246 77.4762C169.174 77.5517 169.119 77.6394 169.084 77.7343C169.049 77.8292 169.035 77.9294 169.043 78.0293C169.051 78.1292 169.08 78.2267 169.129 78.3162C169.177 78.4058 169.245 78.4857 169.328 78.5513C169.41 78.6169 169.506 78.667 169.61 78.6987L185.614 83.606Z" fill="#E6E6E6"/>
<path d="M196.304 187.513H0V188H196.304V187.513Z" fill="#CACACA"/>
</g>
<defs>
<clipPath id="clip0_132_644">
<rect width="225" height="188" fill="white"/>
</clipPath>
</defs>
</svg>
